<svg width="16" height="18" viewBox="0 0 16 18" fill="none" xmlns="http://www.w3.org/2000/svg">
<path d="M1.81269 17.1752C1.57053 17.1752 1.36042 17.0862 1.18237 16.9081C1.00431 16.7301 0.915283 16.5199 0.915283 16.2778V14.0343C0.915283 12.7523 1.31413 11.6198 2.11182 10.637C2.90951 9.6541 3.93512 9.02734 5.18864 8.75669C4.61885 9.15554 4.17728 9.65766 3.8639 10.263C3.55052 10.8684 3.39383 11.5201 3.39383 12.2181V16.2778C3.39383 16.4345 3.41519 16.5912 3.45793 16.7479C3.50066 16.9045 3.57188 17.047 3.6716 17.1752H1.81269ZM4.9536 17.1752C4.71144 17.1752 4.50134 17.0862 4.32328 16.9081C4.14523 16.7301 4.0562 16.5199 4.0562 16.2778V12.2181C4.0562 11.221 4.40875 10.3734 5.11385 9.67546C5.81895 8.97748 6.67006 8.62849 7.66718 8.62849H11.7055C12.7026 8.62849 13.5502 8.97748 14.2481 9.67546C14.9461 10.3734 15.2951 11.221 15.2951 12.2181V13.5856C15.2951 14.5827 14.9461 15.4302 14.2481 16.1282C13.5502 16.8262 12.7026 17.1752 11.7055 17.1752H4.9536ZM8.11588 6.83368C7.17574 6.83368 6.37805 6.50606 5.7228 5.85081C5.06756 5.19557 4.73993 4.39787 4.73993 3.45774C4.73993 2.5176 5.06756 1.71991 5.7228 1.06466C6.37805 0.409411 7.17574 0.0817871 8.11588 0.0817871C9.05602 0.0817871 9.85371 0.409411 10.509 1.06466C11.1642 1.71991 11.4918 2.5176 11.4918 3.45774C11.4918 4.39787 11.1642 5.19557 10.509 5.85081C9.85371 6.50606 9.05602 6.83368 8.11588 6.83368Z" fill="#1F1F1F"/>
</svg>
