<svg width="38" height="33" viewBox="0 0 38 33" fill="none" xmlns="http://www.w3.org/2000/svg">
<path d="M0 32.909L19 0.0908203L38 32.909H0ZM5.95909 29.4545H32.0409L19 6.99991L5.95909 29.4545ZM19 27.7272C19.4894 27.7272 19.8996 27.5617 20.2307 27.2306C20.5617 26.8995 20.7273 26.4893 20.7273 25.9999C20.7273 25.5105 20.5617 25.1003 20.2307 24.7692C19.8996 24.4382 19.4894 24.2726 19 24.2726C18.5106 24.2726 18.1004 24.4382 17.7693 24.7692C17.4383 25.1003 17.2727 25.5105 17.2727 25.9999C17.2727 26.4893 17.4383 26.8995 17.7693 27.2306C18.1004 27.5617 18.5106 27.7272 19 27.7272ZM17.2727 22.5454H20.7273V13.909H17.2727V22.5454Z" fill="white"/>
</svg>
